# xmcd
#
# Track frame offsets:
#	150
#	11605
#	23551
#	36889
#	57634
#	68795
#	83201
#	99563
#	119127
#	131615
#	146755
#	158791
#	174550
#	187028
#	202581
#	220057
#	243434
#	255680
#	285283
#	300139
#
# Disc length: 4186
#
# Revision: 1
# Processed by: cddbd v1.5.1PL0 Copyright (c) Steve Scherf et al.
# Submitted via: audiograbber 1.81.01
# Normalized: r0:DSETVAR1
#
DISCID=15105814
DTITLE=Various Artist - MEGA SOUL [CD3 of 4)
DYEAR=2003
DGENRE=Soul
TTITLE0=MARTHA REEVES and VANDELLAS - DANSING IN THE STREET
TTITLE1=SAM and DAVE - HOLD ON I'M COMIN'
TTITLE2=HAROLD MELVIN and THE BLUE NOTES - MY GIRL
TTITLE3=MOTORCITY ALL STARS - HEATWAVE
TTITLE4=CLARENCE CARTER - SLIP AWAY
TTITLE5=PERCY SLEDGE - WARM AND TENDER LOVE
TTITLE6=JOE TEX - YOU'RE RIGHT RAY CHARLES
TTITLE7=AL JARREAU - LEAN ON ME
TTITLE8=BARRY WHITE - All IN THE RUN OF A DAY
TTITLE9=TEDDY PENDERGRASS - ONLY YOU
TTITLE10=BROOK BENTON - KIDDIO
TTITLE11=EDWIN STARR - THAT'S THE WAY (I LIKE IT)
TTITLE12=BEN E. KING - DON'T PLAY THAT SONG
TTITLE13=NAT KING COLE - UNFORGETTABLE
TTITLE14=THE CHI-LITES - OH GIRL
TTITLE15=HEATWAVE - AIN'T NO HALF SLEEPING
TTITLE16=GLADYS KNIGHT and THE PIPS - YOU BROKE YOUR PROMISE
TTITLE17=MARVIN GAYE - LET'S GET IT ON
TTITLE18=THE MIRACLES - THA TRACKS OF MY TEARS
TTITLE19=DOBIE GRAY - LOVING ARMS
EXTD=
EXTT0=
EXTT1=
EXTT2=
EXTT3=
EXTT4=
EXTT5=
EXTT6=
EXTT7=
EXTT8=
EXTT9=
EXTT10=
EXTT11=
EXTT12=
EXTT13=
EXTT14=
EXTT15=
EXTT16=
EXTT17=
EXTT18=
EXTT19=
PLAYORDER=
